<?xml version="1.0" encoding="utf-8"?>
<!-- Generator: Adobe Illustrator 23.0.3, SVG Export Plug-In . SVG Version: 6.00 Build 0)  -->
<svg version="1.1" id="Layer_1" xmlns="http://www.w3.org/2000/svg" xmlns:xlink="http://www.w3.org/1999/xlink" x="0px" y="0px"
	 viewBox="0 0 32 32" style="enable-background:new 0 0 32 32;" xml:space="preserve">
<style type="text/css">
	.st0{clip-path:url(#SVGID_2_);}
	.st1{clip-path:url(#SVGID_4_);}
</style>
<g>
	<g>
		<path d="M18,26c-0.1376953,0-0.2758789-0.0283203-0.4057617-0.0859375L7.2177734,21.3066406H4c-0.5522461,0-1-0.4477539-1-1
			v-8.6132813c0-0.5522461,0.4477539-1,1-1h3.2177734l10.3764648-4.6074219
			c0.309082-0.137207,0.6674805-0.1088867,0.9506836,0.0756836C18.8286133,6.3461914,19,6.6616211,19,7v18
			c0,0.3383789-0.1713867,0.6538086-0.4550781,0.8383789C18.3803711,25.9453125,18.1904297,26,18,26z M5,19.3066406h2.4296875
			c0.1396484,0,0.277832,0.0292969,0.4057617,0.0859375L17,23.4619141V8.5380859l-9.1645508,4.0693359
			c-0.1279297,0.0566406-0.2661133,0.0859375-0.4057617,0.0859375H5V19.3066406z"/>
	</g>
	<g>
		<g>
			<path d="M22.5,19.75c-0.2558594,0-0.5117188-0.0976563-0.7070313-0.2929688c-0.390625-0.390625-0.390625-1.0234375,0-1.4140625
				l5.5-5.5c0.390625-0.390625,1.0234375-0.390625,1.4140625,0s0.390625,1.0234375,0,1.4140625l-5.5,5.5
				C23.0117188,19.6523438,22.7558594,19.75,22.5,19.75z"/>
		</g>
		<g>
			<path d="M28,19.75c-0.2558594,0-0.5117188-0.0976563-0.7070313-0.2929688l-5.5-5.5
				c-0.390625-0.390625-0.390625-1.0234375,0-1.4140625s1.0234375-0.390625,1.4140625,0l5.5,5.5
				c0.390625,0.390625,0.390625,1.0234375,0,1.4140625C28.5117188,19.6523438,28.2558594,19.75,28,19.75z"/>
		</g>
	</g>
</g>
</svg>
