<?xml version="1.0" encoding="utf-8"?>
<!-- Generator: Adobe Illustrator 23.0.3, SVG Export Plug-In . SVG Version: 6.00 Build 0)  -->
<svg version="1.1" id="Layer_1" xmlns="http://www.w3.org/2000/svg" xmlns:xlink="http://www.w3.org/1999/xlink" x="0px" y="0px"
	 viewBox="0 0 32 32" style="enable-background:new 0 0 32 32;" xml:space="preserve">
<style type="text/css">
	.st0{clip-path:url(#SVGID_2_);}
	.st1{clip-path:url(#SVGID_4_);}
</style>
<g>
	<g>
		<path d="M19.125,26c-0.1376953,0-0.2758789-0.0283203-0.4057617-0.0859375L8.3427734,21.3066406H5.125
			c-0.5522461,0-1-0.4477539-1-1v-8.6132813c0-0.5522461,0.4477539-1,1-1h3.2177734l10.3764648-4.6074219
			c0.309082-0.137207,0.6674805-0.1088867,0.9506836,0.0756836C19.9536133,6.3461914,20.125,6.6616211,20.125,7v18
			c0,0.3383789-0.1713867,0.6538086-0.4550781,0.8383789C19.5053711,25.9453125,19.3154297,26,19.125,26z M6.125,19.3066406
			h2.4296875c0.1396484,0,0.277832,0.0292969,0.4057617,0.0859375L18.125,23.4619141V8.5380859l-9.1645508,4.0693359
			c-0.1279297,0.0566406-0.2661133,0.0859375-0.4057617,0.0859375H6.125V19.3066406z"/>
	</g>
	<g>
		<path d="M23.125,20.75c-0.5522461,0-1-0.4477539-1-1s0.4477539-1,1-1c1.5166016,0,2.75-1.2333984,2.75-2.75
			s-1.2333984-2.75-2.75-2.75c-0.5522461,0-1-0.4477539-1-1s0.4477539-1,1-1c2.6191406,0,4.75,2.1308594,4.75,4.75
			S25.7441406,20.75,23.125,20.75z"/>
	</g>
</g>
</svg>
